<svg width="30" height="30" viewBox="0 0 30 30" fill="none" xmlns="http://www.w3.org/2000/svg">
<g clip-path="url(#clip0_108_41)">
<path d="M13.4473 27.5537C13.3496 27.9248 13.2764 28.3008 13.2275 28.6816C13.1787 29.0625 13.1445 29.4531 13.125 29.8535C11.875 29.707 10.6836 29.4141 9.55078 28.9746C8.41797 28.5352 7.36816 27.9736 6.40137 27.29C5.43457 26.6064 4.55566 25.8154 3.76465 24.917C2.97363 24.0186 2.2998 23.042 1.74316 21.9873C1.18652 20.9326 0.756836 19.8193 0.454102 18.6475C0.151367 17.4756 0 16.2598 0 15C0 13.623 0.175781 12.2949 0.527344 11.0156C0.878906 9.73633 1.38184 8.54004 2.03613 7.42676C2.69043 6.31348 3.47168 5.30273 4.37988 4.39453C5.28809 3.48633 6.30371 2.70508 7.42676 2.05078C8.5498 1.39648 9.74121 0.893555 11.001 0.541992C12.2607 0.19043 13.5938 0.00976562 15 0C16.377 0 17.7002 0.175781 18.9697 0.527344C20.2393 0.878906 21.4355 1.38672 22.5586 2.05078C23.6816 2.71484 24.6924 3.49609 25.5908 4.39453C26.4893 5.29297 27.2754 6.30859 27.9492 7.44141C28.623 8.57422 29.126 9.76562 29.458 11.0156C29.79 12.2656 29.9707 13.5938 30 15H28.96C28.8232 14.7754 28.6816 14.5557 28.5352 14.3408C28.3887 14.126 28.2178 13.9209 28.0225 13.7256C27.9639 12.876 27.8125 12.0508 27.5684 11.25H9.62402C9.5459 11.875 9.4873 12.4951 9.44824 13.1104C9.40918 13.7256 9.38477 14.3555 9.375 15C9.375 15.6348 9.39453 16.2598 9.43359 16.875C9.47266 17.4902 9.53613 18.1152 9.62402 18.75H15C15 19.0625 15.0244 19.375 15.0732 19.6875C15.1221 20 15.1855 20.3125 15.2637 20.625H9.94629C10.0635 21.1816 10.2197 21.792 10.415 22.4561C10.6104 23.1201 10.8545 23.7695 11.1475 24.4043C11.4404 25.0391 11.7773 25.6348 12.1582 26.1914C12.5391 26.748 12.9688 27.2021 13.4473 27.5537ZM26.8506 9.375C26.4697 8.58398 26.0205 7.8418 25.5029 7.14844C24.9854 6.45508 24.3994 5.82031 23.7451 5.24414C23.0908 4.66797 22.3975 4.15527 21.665 3.70605C20.9326 3.25684 20.1416 2.89062 19.292 2.60742C19.6436 3.0957 19.9561 3.61328 20.2295 4.16016C20.5029 4.70703 20.752 5.26855 20.9766 5.84473C21.2012 6.4209 21.3916 7.00684 21.5479 7.60254C21.7041 8.19824 21.8408 8.78906 21.958 9.375H26.8506ZM15 1.875C14.5117 1.875 14.0625 2.00684 13.6523 2.27051C13.2422 2.53418 12.8613 2.88086 12.5098 3.31055C12.1582 3.74023 11.8457 4.22363 11.5723 4.76074C11.2988 5.29785 11.0498 5.84961 10.8252 6.41602C10.6006 6.98242 10.4199 7.51953 10.2832 8.02734C10.1465 8.53516 10.0342 8.98438 9.94629 9.375H20.0537C19.9756 8.99414 19.8633 8.54492 19.7168 8.02734C19.5703 7.50977 19.3896 6.97266 19.1748 6.41602C18.96 5.85938 18.7158 5.3125 18.4424 4.77539C18.1689 4.23828 17.8564 3.75 17.5049 3.31055C17.1533 2.87109 16.7676 2.52441 16.3477 2.27051C15.9277 2.0166 15.4785 1.88477 15 1.875ZM10.7227 2.59277C9.89258 2.87598 9.10156 3.2373 8.34961 3.67676C7.59766 4.11621 6.89941 4.62891 6.25488 5.21484C5.61035 5.80078 5.02441 6.44043 4.49707 7.13379C3.96973 7.82715 3.52051 8.57422 3.14941 9.375H8.04199C8.14941 8.83789 8.28125 8.2666 8.4375 7.66113C8.59375 7.05566 8.78906 6.4502 9.02344 5.84473C9.25781 5.23926 9.51172 4.6582 9.78516 4.10156C10.0586 3.54492 10.3711 3.04199 10.7227 2.59277ZM1.875 15C1.875 16.2988 2.05566 17.5488 2.41699 18.75H7.73438C7.65625 18.125 7.59766 17.5049 7.55859 16.8896C7.51953 16.2744 7.5 15.6445 7.5 15C7.5 14.3652 7.51953 13.7402 7.55859 13.125C7.59766 12.5098 7.65625 11.8848 7.73438 11.25H2.41699C2.05566 12.4512 1.875 13.7012 1.875 15ZM3.12012 20.625C3.50098 21.416 3.9502 22.1582 4.46777 22.8516C4.98535 23.5449 5.57129 24.1846 6.22559 24.7705C6.87988 25.3564 7.58301 25.8643 8.33496 26.2939C9.08691 26.7236 9.87793 27.0898 10.708 27.3926C10.3564 26.9043 10.0439 26.3867 9.77051 25.8398C9.49707 25.293 9.24805 24.7314 9.02344 24.1553C8.79883 23.5791 8.6084 22.9932 8.45215 22.3975C8.2959 21.8018 8.1543 21.2109 8.02734 20.625H3.12012ZM25.8105 23.2764C26.4453 23.5986 27.0215 23.9941 27.5391 24.4629C28.0566 24.9316 28.4961 25.459 28.8574 26.0449C29.2188 26.6309 29.502 27.2559 29.707 27.9199C29.9121 28.584 30.0098 29.2773 30 30H28.125C28.125 29.2285 27.9785 28.501 27.6855 27.8174C27.3926 27.1338 26.9922 26.5381 26.4844 26.0303C25.9766 25.5225 25.376 25.1172 24.6826 24.8145C23.9893 24.5117 23.2617 24.3652 22.5 24.375C21.7188 24.375 20.9912 24.5215 20.3174 24.8145C19.6436 25.1074 19.0479 25.5078 18.5303 26.0156C18.0127 26.5234 17.6074 27.124 17.3145 27.8174C17.0215 28.5107 16.875 29.2383 16.875 30H15C15 29.2871 15.0977 28.5986 15.293 27.9346C15.4883 27.2705 15.7666 26.6406 16.1279 26.0449C16.4893 25.4492 16.9287 24.9219 17.4463 24.4629C17.9639 24.0039 18.54 23.6084 19.1748 23.2764C18.4424 22.749 17.876 22.0898 17.4756 21.2988C17.0752 20.5078 16.875 19.6582 16.875 18.75C16.875 17.9785 17.0215 17.251 17.3145 16.5674C17.6074 15.8838 18.0078 15.2881 18.5156 14.7803C19.0234 14.2725 19.6191 13.8672 20.3027 13.5645C20.9863 13.2617 21.7188 13.1152 22.5 13.125C23.2715 13.125 23.999 13.2715 24.6826 13.5645C25.3662 13.8574 25.9619 14.2578 26.4697 14.7656C26.9775 15.2734 27.3828 15.874 27.6855 16.5674C27.9883 17.2607 28.1348 17.9883 28.125 18.75C28.125 19.6484 27.9248 20.4932 27.5244 21.2842C27.124 22.0752 26.5527 22.7393 25.8105 23.2764ZM22.5 22.5C23.0176 22.5 23.501 22.4023 23.9502 22.207C24.3994 22.0117 24.7998 21.7432 25.1514 21.4014C25.5029 21.0596 25.7715 20.6641 25.957 20.2148C26.1426 19.7656 26.2402 19.2773 26.25 18.75C26.25 18.2324 26.1523 17.749 25.957 17.2998C25.7617 16.8506 25.4932 16.4502 25.1514 16.0986C24.8096 15.7471 24.4141 15.4785 23.9648 15.293C23.5156 15.1074 23.0273 15.0098 22.5 15C21.9824 15 21.499 15.0977 21.0498 15.293C20.6006 15.4883 20.2002 15.7568 19.8486 16.0986C19.4971 16.4404 19.2285 16.8359 19.043 17.2852C18.8574 17.7344 18.7598 18.2227 18.75 18.75C18.75 19.2676 18.8477 19.751 19.043 20.2002C19.2383 20.6494 19.5068 21.0498 19.8486 21.4014C20.1904 21.7529 20.5859 22.0215 21.0352 22.207C21.4844 22.3926 21.9727 22.4902 22.5 22.5Z" fill="#231389"/>
</g>
<defs>
<clipPath id="clip0_108_41">
<rect width="30" height="30" fill="white"/>
</clipPath>
</defs>
</svg>
