<svg width="235" height="24" viewBox="0 0 235 24" fill="none" xmlns="http://www.w3.org/2000/svg">
<path d="M0 23.6308V0H17.1654V2.53846H3.46662V10.5231H15.8794V13.0615H3.46662V23.6308H0Z" fill="white"/>
<path d="M29.8018 24C27.8634 24 26.1628 23.6192 24.6997 22.8577C23.2459 22.0962 22.109 21.0308 21.289 19.6615C20.4782 18.2923 20.0729 16.6923 20.0729 14.8615C20.0729 13.0154 20.4782 11.4038 21.289 10.0269C22.109 8.65 23.2459 7.58077 24.6997 6.81923C26.1628 6.05769 27.8634 5.67692 29.8018 5.67692C31.7401 5.67692 33.4361 6.05769 34.8899 6.81923C36.3529 7.58077 37.4899 8.65 38.3006 10.0269C39.1207 11.4038 39.5307 13.0154 39.5307 14.8615C39.5307 16.6923 39.1207 18.2923 38.3006 19.6615C37.4899 21.0308 36.3529 22.0962 34.8899 22.8577C33.4361 23.6192 31.7401 24 29.8018 24ZM29.8018 21.5538C31.2742 21.5538 32.4856 21.2423 33.4361 20.6192C34.3867 19.9962 35.0902 19.1769 35.5469 18.1615C36.0035 17.1462 36.2318 16.0462 36.2318 14.8615C36.2318 13.6769 36.0035 12.5731 35.5469 11.55C35.0902 10.5269 34.3867 9.7 33.4361 9.06923C32.4856 8.43846 31.2742 8.12308 29.8018 8.12308C28.3294 8.12308 27.1179 8.43846 26.1674 9.06923C25.2169 9.7 24.5133 10.5269 24.0567 11.55C23.6001 12.5731 23.3717 13.6769 23.3717 14.8615C23.3717 16.0462 23.6001 17.1462 24.0567 18.1615C24.5133 19.1769 25.2169 19.9962 26.1674 20.6192C27.1179 21.2423 28.3294 21.5538 29.8018 21.5538Z" fill="white"/>
<path d="M47.8653 0V23.6308H44.5664V0H47.8653Z" fill="white"/>
<path d="M57.2063 0V23.6308H53.9074V0H57.2063Z" fill="white"/>
<path d="M71.9709 24C70.0325 24 68.3318 23.6192 66.8688 22.8577C65.415 22.0962 64.2781 21.0308 63.4581 19.6615C62.6473 18.2923 62.242 16.6923 62.242 14.8615C62.242 13.0154 62.6473 11.4038 63.4581 10.0269C64.2781 8.65 65.415 7.58077 66.8688 6.81923C68.3318 6.05769 70.0325 5.67692 71.9709 5.67692C73.9092 5.67692 75.6052 6.05769 77.059 6.81923C78.522 7.58077 79.6589 8.65 80.4697 10.0269C81.2897 11.4038 81.6998 13.0154 81.6998 14.8615C81.6998 16.6923 81.2897 18.2923 80.4697 19.6615C79.6589 21.0308 78.522 22.0962 77.059 22.8577C75.6052 23.6192 73.9092 24 71.9709 24ZM71.9709 21.5538C73.4433 21.5538 74.6547 21.2423 75.6052 20.6192C76.5558 19.9962 77.2593 19.1769 77.716 18.1615C78.1726 17.1462 78.4009 16.0462 78.4009 14.8615C78.4009 13.6769 78.1726 12.5731 77.716 11.55C77.2593 10.5269 76.5558 9.7 75.6052 9.06923C74.6547 8.43846 73.4433 8.12308 71.9709 8.12308C70.4985 8.12308 69.287 8.43846 68.3365 9.06923C67.386 9.7 66.6824 10.5269 66.2258 11.55C65.7691 12.5731 65.5408 13.6769 65.5408 14.8615C65.5408 16.0462 65.7691 17.1462 66.2258 18.1615C66.6824 19.1769 67.386 19.9962 68.3365 20.6192C69.287 21.2423 70.4985 21.5538 71.9709 21.5538Z" fill="white"/>
<path d="M90.8696 23.6308L84.3277 5.90769H87.7943L92.4351 19.4769H92.6588L97.2437 5.90769H100.766L105.295 19.4308H105.519L110.16 5.90769H113.626L107.084 23.6308H103.841L99.1447 10.0154H98.8092L94.1125 23.6308H90.8696Z" fill="white"/>
<path d="M142.589 16.3846V5.90769H145.888V23.6308H142.589V20.6308H142.366C141.862 21.5308 141.08 22.2962 140.017 22.9269C138.955 23.55 137.613 23.8615 135.992 23.8615C134.65 23.8615 133.457 23.6192 132.413 23.1346C131.369 22.6423 130.549 21.9038 129.953 20.9192C129.357 19.9269 129.058 18.6769 129.058 17.1692V5.90769H132.357V16.9846C132.357 18.2769 132.795 19.3077 133.671 20.0769C134.556 20.8462 135.684 21.2308 137.054 21.2308C137.874 21.2308 138.708 21.0577 139.556 20.7115C140.413 20.3654 141.131 19.8346 141.709 19.1192C142.296 18.4038 142.589 17.4923 142.589 16.3846Z" fill="white"/>
<path d="M167.139 9.87692L164.175 10.5692C163.989 10.1615 163.714 9.76538 163.351 9.38077C162.997 8.98846 162.512 8.66538 161.897 8.41154C161.282 8.15769 160.494 8.03077 159.535 8.03077C158.221 8.03077 157.126 8.28077 156.25 8.78077C155.383 9.27308 154.95 9.9 154.95 10.6615C154.95 11.3385 155.248 11.8731 155.844 12.2654C156.441 12.6577 157.373 12.9846 158.64 13.2462L161.827 13.8923C163.747 14.2769 165.177 14.8654 166.118 15.6577C167.06 16.4423 167.53 17.4538 167.53 18.6923C167.53 19.7077 167.176 20.6154 166.468 21.4154C165.769 22.2154 164.79 22.8462 163.532 23.3077C162.274 23.7692 160.811 24 159.143 24C156.953 24 155.141 23.6077 153.706 22.8231C152.27 22.0385 151.362 20.8923 150.98 19.3846L154.111 18.7385C154.409 19.6923 154.973 20.4077 155.802 20.8846C156.641 21.3615 157.736 21.6 159.087 21.6C160.625 21.6 161.846 21.3308 162.75 20.7923C163.663 20.2462 164.119 19.5923 164.119 18.8308C164.119 18.2154 163.859 17.7 163.337 17.2846C162.815 16.8615 162.013 16.5462 160.932 16.3385L157.354 15.6462C155.388 15.2615 153.943 14.6654 153.021 13.8577C152.107 13.0423 151.651 12.0231 151.651 10.8C151.651 9.8 151.991 8.91538 152.671 8.14615C153.361 7.37692 154.297 6.77308 155.481 6.33461C156.674 5.89615 158.025 5.67692 159.535 5.67692C161.659 5.67692 163.327 6.06154 164.539 6.83077C165.76 7.6 166.626 8.61539 167.139 9.87692Z" fill="white"/>
<path d="M192.289 24C190.351 24 188.65 23.6192 187.187 22.8577C185.733 22.0962 184.596 21.0308 183.776 19.6615C182.966 18.2923 182.56 16.6923 182.56 14.8615C182.56 13.0154 182.966 11.4038 183.776 10.0269C184.596 8.65 185.733 7.58077 187.187 6.81923C188.65 6.05769 190.351 5.67692 192.289 5.67692C194.228 5.67692 195.924 6.05769 197.377 6.81923C198.84 7.58077 199.977 8.65 200.788 10.0269C201.608 11.4038 202.018 13.0154 202.018 14.8615C202.018 16.6923 201.608 18.2923 200.788 19.6615C199.977 21.0308 198.84 22.0962 197.377 22.8577C195.924 23.6192 194.228 24 192.289 24ZM192.289 21.5538C193.762 21.5538 194.973 21.2423 195.924 20.6192C196.874 19.9962 197.578 19.1769 198.034 18.1615C198.491 17.1462 198.719 16.0462 198.719 14.8615C198.719 13.6769 198.491 12.5731 198.034 11.55C197.578 10.5269 196.874 9.7 195.924 9.06923C194.973 8.43846 193.762 8.12308 192.289 8.12308C190.817 8.12308 189.605 8.43846 188.655 9.06923C187.704 9.7 187.001 10.5269 186.544 11.55C186.088 12.5731 185.859 13.6769 185.859 14.8615C185.859 16.0462 186.088 17.1462 186.544 18.1615C187.001 19.1769 187.704 19.9962 188.655 20.6192C189.605 21.2423 190.817 21.5538 192.289 21.5538Z" fill="white"/>
<path d="M210.353 12.9692V23.6308H207.054V5.90769H210.241V8.67692H210.52C211.024 7.77692 211.788 7.05385 212.813 6.50769C213.838 5.95385 215.161 5.67692 216.783 5.67692C218.236 5.67692 219.509 5.92308 220.599 6.41538C221.689 6.9 222.537 7.63846 223.143 8.63077C223.749 9.61538 224.051 10.8615 224.051 12.3692V23.6308H220.753V12.5538C220.753 11.1615 220.315 10.0769 219.439 9.3C218.563 8.51538 217.361 8.12308 215.832 8.12308C214.779 8.12308 213.838 8.31154 213.009 8.68846C212.189 9.06538 211.541 9.61539 211.066 10.3385C210.59 11.0615 210.353 11.9385 210.353 12.9692Z" fill="white"/>
<path d="M232.484 23.8154C231.794 23.8154 231.203 23.6115 230.709 23.2038C230.215 22.7962 229.968 22.3077 229.968 21.7385C229.968 21.1692 230.215 20.6808 230.709 20.2731C231.203 19.8654 231.794 19.6615 232.484 19.6615C233.174 19.6615 233.765 19.8654 234.259 20.2731C234.753 20.6808 235 21.1692 235 21.7385C235 22.1154 234.883 22.4615 234.651 22.7769C234.427 23.0923 234.124 23.3462 233.742 23.5385C233.369 23.7231 232.95 23.8154 232.484 23.8154ZM232.484 10.6615C231.794 10.6615 231.203 10.4577 230.709 10.05C230.215 9.64231 229.968 9.15385 229.968 8.58462C229.968 8.01539 230.215 7.52692 230.709 7.11923C231.203 6.71154 231.794 6.50769 232.484 6.50769C233.174 6.50769 233.765 6.71154 234.259 7.11923C234.753 7.52692 235 8.01539 235 8.58462C235 8.96154 234.883 9.30769 234.651 9.62308C234.427 9.93846 234.124 10.1923 233.742 10.3846C233.369 10.5692 232.95 10.6615 232.484 10.6615Z" fill="white"/>
</svg>
