<svg width="46" height="46" viewBox="0 0 46 46" fill="none" xmlns="http://www.w3.org/2000/svg">
<path fill-rule="evenodd" clip-rule="evenodd" d="M11.4999 20.125C10.9916 20.125 10.5041 20.3269 10.1446 20.6864C9.78519 21.0458 9.58325 21.5333 9.58325 22.0417V23.9583C9.58325 24.4667 9.78519 24.9542 10.1446 25.3136C10.5041 25.6731 10.9916 25.875 11.4999 25.875H13.4166C13.9249 25.875 14.4124 25.6731 14.7719 25.3136C15.1313 24.9542 15.3333 24.4667 15.3333 23.9583V22.0417C15.3333 21.5333 15.1313 21.0458 14.7719 20.6864C14.4124 20.3269 13.9249 20.125 13.4166 20.125H11.4999ZM11.4999 22.0417V23.9583H13.4166V22.0417H11.4999ZM17.2499 22.0417C17.2499 21.5333 17.4519 21.0458 17.8113 20.6864C18.1707 20.3269 18.6583 20.125 19.1666 20.125H21.0833C21.5916 20.125 22.0791 20.3269 22.4385 20.6864C22.798 21.0458 22.9999 21.5333 22.9999 22.0417V23.9583C22.9999 24.4667 22.798 24.9542 22.4385 25.3136C22.0791 25.6731 21.5916 25.875 21.0833 25.875H19.1666C18.6583 25.875 18.1707 25.6731 17.8113 25.3136C17.4519 24.9542 17.2499 24.4667 17.2499 23.9583V22.0417ZM19.1666 22.0417H21.0833V23.9583H19.1666V22.0417ZM26.8333 20.125C26.3249 20.125 25.8374 20.3269 25.478 20.6864C25.1185 21.0458 24.9166 21.5333 24.9166 22.0417V23.9583C24.9166 24.4667 25.1185 24.9542 25.478 25.3136C25.8374 25.6731 26.3249 25.875 26.8333 25.875H28.7499C29.2583 25.875 29.7458 25.6731 30.1052 25.3136C30.4647 24.9542 30.6666 24.4667 30.6666 23.9583V22.0417C30.6666 21.5333 30.4647 21.0458 30.1052 20.6864C29.7458 20.3269 29.2583 20.125 28.7499 20.125H26.8333ZM26.8333 22.0417V23.9583H28.7499V22.0417H26.8333ZM9.58325 29.7083C9.58325 29.2 9.78519 28.7125 10.1446 28.353C10.5041 27.9936 10.9916 27.7917 11.4999 27.7917H13.4166C13.9249 27.7917 14.4124 27.9936 14.7719 28.353C15.1313 28.7125 15.3333 29.2 15.3333 29.7083V31.625C15.3333 32.1333 15.1313 32.6208 14.7719 32.9803C14.4124 33.3397 13.9249 33.5417 13.4166 33.5417H11.4999C10.9916 33.5417 10.5041 33.3397 10.1446 32.9803C9.78519 32.6208 9.58325 32.1333 9.58325 31.625V29.7083ZM13.4166 29.7083V31.625H11.4999V29.7083H13.4166ZM19.1666 27.7917C18.6583 27.7917 18.1707 27.9936 17.8113 28.353C17.4519 28.7125 17.2499 29.2 17.2499 29.7083V31.625C17.2499 32.1333 17.4519 32.6208 17.8113 32.9803C18.1707 33.3397 18.6583 33.5417 19.1666 33.5417H21.0833C21.5916 33.5417 22.0791 33.3397 22.4385 32.9803C22.798 32.6208 22.9999 32.1333 22.9999 31.625V29.7083C22.9999 29.2 22.798 28.7125 22.4385 28.353C22.0791 27.9936 21.5916 27.7917 21.0833 27.7917H19.1666ZM21.0833 29.7083H19.1666V31.625H21.0833V29.7083Z" fill="#231389"/>
<path d="M34.4999 31.1458C34.4999 30.8917 34.399 30.6479 34.2192 30.4682C34.0395 30.2885 33.7958 30.1875 33.5416 30.1875C33.2874 30.1875 33.0437 30.2885 32.8639 30.4682C32.6842 30.6479 32.5833 30.8917 32.5833 31.1458V33.9384L33.8224 35.1775C34.0031 35.3521 34.2452 35.4487 34.4965 35.4465C34.7477 35.4443 34.9881 35.3436 35.1658 35.1659C35.3435 34.9882 35.4443 34.7478 35.4464 34.4966C35.4486 34.2453 35.352 34.0032 35.1775 33.8225L34.4999 33.1449V31.1458Z" fill="#231389"/>
<path fill-rule="evenodd" clip-rule="evenodd" d="M11.5 6.70833C11.5 6.45417 11.601 6.21041 11.7807 6.03069C11.9604 5.85097 12.2042 5.75 12.4583 5.75C12.7125 5.75 12.9563 5.85097 13.136 6.03069C13.3157 6.21041 13.4167 6.45417 13.4167 6.70833V11.5C13.4167 11.7542 13.5176 11.9979 13.6974 12.1776C13.8771 12.3574 14.1208 12.4583 14.375 12.4583C14.6292 12.4583 14.8729 12.3574 15.0526 12.1776C15.2324 11.9979 15.3333 11.7542 15.3333 11.5V8.625H24.9167V6.70833C24.9167 6.45417 25.0176 6.21041 25.1974 6.03069C25.3771 5.85097 25.6208 5.75 25.875 5.75C26.1292 5.75 26.3729 5.85097 26.5526 6.03069C26.7324 6.21041 26.8333 6.45417 26.8333 6.70833V11.5C26.8333 11.7542 26.9343 11.9979 27.114 12.1776C27.2937 12.3574 27.5375 12.4583 27.7917 12.4583C28.0458 12.4583 28.2896 12.3574 28.4693 12.1776C28.649 11.9979 28.75 11.7542 28.75 11.5V8.625H31.625C32.3875 8.625 33.1188 8.9279 33.6579 9.46707C34.1971 10.0062 34.5 10.7375 34.5 11.5V26.9004C36.1786 27.143 37.703 28.0123 38.7665 29.3335C39.83 30.6546 40.3538 32.3295 40.2323 34.0211C40.1109 35.7128 39.3533 37.2957 38.1119 38.4513C36.8706 39.607 35.2377 40.2496 33.5417 40.25C32.4601 40.2507 31.3944 39.9896 30.4356 39.4889C29.4769 38.9883 28.6536 38.263 28.036 37.375H8.625C7.8625 37.375 7.13124 37.0721 6.59207 36.5329C6.0529 35.9938 5.75 35.2625 5.75 34.5V11.5C5.75 10.7375 6.0529 10.0062 6.59207 9.46707C7.13124 8.9279 7.8625 8.625 8.625 8.625H11.5V6.70833ZM26.8333 33.5417C26.8331 31.9283 27.4143 30.3689 28.4703 29.1492C29.5264 27.9294 30.9865 27.1311 32.5833 26.9004V17.25H7.66667V34.5C7.66667 34.7542 7.76763 34.9979 7.94736 35.1776C8.12708 35.3574 8.37083 35.4583 8.625 35.4583H27.1112C26.9264 34.8362 26.8328 34.1906 26.8333 33.5417ZM38.3333 33.5417C38.3333 34.8125 37.8285 36.0313 36.9299 36.9299C36.0313 37.8285 34.8125 38.3333 33.5417 38.3333C32.2708 38.3333 31.0521 37.8285 30.1534 36.9299C29.2548 36.0313 28.75 34.8125 28.75 33.5417C28.75 32.2708 29.2548 31.0521 30.1534 30.1534C31.0521 29.2548 32.2708 28.75 33.5417 28.75C34.8125 28.75 36.0313 29.2548 36.9299 30.1534C37.8285 31.0521 38.3333 32.2708 38.3333 33.5417Z" fill="#231389"/>
</svg>
