<svg width="47" height="50" viewBox="0 0 47 50" fill="none" xmlns="http://www.w3.org/2000/svg">
<path d="M37.7371 11.1042C35.1325 9.81251 32.3125 8.87501 29.375 8.33335C29.3492 8.33247 29.3236 8.33761 29.2999 8.34841C29.2763 8.35921 29.2551 8.3754 29.2379 8.39585C28.8854 9.08335 28.4742 9.97918 28.2 10.6667C25.0843 10.1667 21.9157 10.1667 18.8 10.6667C18.5258 9.95835 18.1146 9.08335 17.7425 8.39585C17.7229 8.35418 17.6642 8.33335 17.6054 8.33335C14.6679 8.87501 11.8675 9.81251 9.24334 11.1042C9.22376 11.1042 9.20417 11.125 9.18459 11.1458C3.85792 19.625 2.38917 27.875 3.11376 36.0417C3.11376 36.0833 3.13334 36.125 3.17251 36.1458C6.69751 38.8958 10.0854 40.5625 13.4342 41.6667C13.4929 41.6875 13.5517 41.6667 13.5713 41.625C14.3546 40.4792 15.0596 39.2708 15.6667 38C15.7058 37.9167 15.6667 37.8333 15.5883 37.8125C14.4721 37.3542 13.4146 36.8125 12.3767 36.1875C12.2983 36.1458 12.2983 36.0208 12.3571 35.9583C12.5725 35.7917 12.7879 35.6042 13.0033 35.4375C13.0425 35.3958 13.1013 35.3958 13.1404 35.4167C19.8771 38.6875 27.1425 38.6875 33.8008 35.4167C33.84 35.3958 33.8988 35.3958 33.9379 35.4375C34.1533 35.625 34.3688 35.7917 34.5842 35.9792C34.6625 36.0417 34.6625 36.1667 34.5646 36.2083C33.5463 36.8542 32.4692 37.375 31.3529 37.8333C31.2746 37.8542 31.255 37.9583 31.2746 38.0208C31.9013 39.2917 32.6063 40.5 33.37 41.6458C33.4288 41.6667 33.4875 41.6875 33.5463 41.6667C36.9146 40.5625 40.3025 38.8958 43.8275 36.1458C43.8667 36.125 43.8863 36.0833 43.8863 36.0417C44.7479 26.6042 42.4567 18.4167 37.8154 11.1458C37.7958 11.125 37.7763 11.1042 37.7371 11.1042ZM16.685 31.0625C14.6679 31.0625 12.9838 29.0833 12.9838 26.6458C12.9838 24.2083 14.6288 22.2292 16.685 22.2292C18.7608 22.2292 20.4058 24.2292 20.3863 26.6458C20.3863 29.0833 18.7413 31.0625 16.685 31.0625ZM30.3346 31.0625C28.3175 31.0625 26.6333 29.0833 26.6333 26.6458C26.6333 24.2083 28.2783 22.2292 30.3346 22.2292C32.4104 22.2292 34.0554 24.2292 34.0358 26.6458C34.0358 29.0833 32.4104 31.0625 30.3346 31.0625Z" fill="white"/>
</svg>
