<svg width="30" height="30" viewBox="0 0 30 30" fill="none" xmlns="http://www.w3.org/2000/svg">
<path d="M25 5C25.663 5 26.2989 5.26339 26.7678 5.73223C27.2366 6.20107 27.5 6.83696 27.5 7.5V20C27.5 21.3875 26.3875 22.5 25 22.5H30V25H0V22.5H5C4.33696 22.5 3.70107 22.2366 3.23223 21.7678C2.76339 21.2989 2.5 20.663 2.5 20V7.5C2.5 6.1125 3.6125 5 5 5H25ZM25 7.5H5V20H25V7.5ZM15 15C17.7625 15 20 16.125 20 17.5V18.75H10V17.5C10 16.125 12.2375 15 15 15ZM15 8.75C15.663 8.75 16.2989 9.01339 16.7678 9.48223C17.2366 9.95107 17.5 10.587 17.5 11.25C17.5 11.913 17.2366 12.5489 16.7678 13.0178C16.2989 13.4866 15.663 13.75 15 13.75C13.6125 13.75 12.5 12.6375 12.5 11.25C12.5 9.8625 13.625 8.75 15 8.75Z" fill="#6408D9"/>
</svg>
