<svg width="487" height="174" viewBox="0 0 487 174" fill="none" xmlns="http://www.w3.org/2000/svg">
<g filter="url(#filter0_d_1_203)">
<path d="M9.11181 0H21.3142L50.0063 72.3789H50.9956L79.6877 0H91.8901V87.1953H82.3261V20.9473H81.5016L55.1181 87.1953H45.8838L19.5003 20.9473H18.6758V87.1953H9.11181V0Z" fill="white"/>
<path d="M137.618 88.5577C131.517 88.5577 126.254 87.1669 121.829 84.3853C117.432 81.5753 114.038 77.6583 111.647 72.6344C109.283 67.582 108.102 61.7066 108.102 55.008C108.102 48.3094 109.283 42.4055 111.647 37.2964C114.038 32.159 117.363 28.1568 121.623 25.29C125.91 22.3949 130.912 20.9473 136.629 20.9473C139.927 20.9473 143.183 21.515 146.399 22.6503C149.614 23.7857 152.541 25.6307 155.18 28.1852C157.818 30.7114 159.92 34.0607 161.487 38.2331C163.053 42.4055 163.837 47.543 163.837 53.6456V57.9031H115.027V49.2177H153.943C153.943 45.5278 153.228 42.2352 151.799 39.3401C150.398 36.4449 148.391 34.16 145.78 32.4854C143.197 30.8107 140.147 29.9734 136.629 29.9734C132.754 29.9734 129.401 30.9668 126.57 32.9537C123.767 34.9122 121.609 37.4667 120.098 40.6173C118.586 43.768 117.83 47.1456 117.83 50.7504V56.5407C117.83 61.4795 118.655 65.6661 120.304 69.1006C121.98 72.5067 124.303 75.1038 127.271 76.892C130.239 78.6518 133.688 79.5317 137.618 79.5317C140.174 79.5317 142.483 79.1627 144.544 78.4247C146.632 77.6583 148.433 76.523 149.944 75.0186C151.456 73.4859 152.624 71.5842 153.448 69.3135L162.847 72.0383C161.858 75.3308 160.195 78.226 157.859 80.7238C155.523 83.1932 152.637 85.1233 149.202 86.5141C145.767 87.8765 141.905 88.5577 137.618 88.5577Z" fill="white"/>
<path d="M188.365 47.8552V87.1953H178.636V21.7988H188.035V32.017H188.86C190.344 28.6961 192.597 26.028 195.621 24.0128C198.644 21.9691 202.546 20.9473 207.328 20.9473C211.616 20.9473 215.367 21.8556 218.583 23.6722C221.798 25.4604 224.299 28.1852 226.085 31.8467C227.872 35.4799 228.765 40.0781 228.765 45.6413V87.1953H219.036V46.3225C219.036 41.185 217.744 37.1829 215.161 34.3161C212.578 31.421 209.032 29.9734 204.525 29.9734C201.419 29.9734 198.644 30.6688 196.198 32.0596C193.779 33.4504 191.869 35.4799 190.468 38.1479C189.066 40.816 188.365 44.0518 188.365 47.8552Z" fill="white"/>
<path d="M274.081 21.7988V30.314H241.266V21.7988H274.081ZM250.83 6.13092H260.559V68.4619C260.559 71.3003 260.958 73.4291 261.755 74.8483C262.579 76.2391 263.623 77.1758 264.888 77.6583C266.179 78.1125 267.54 78.3395 268.969 78.3395C270.041 78.3395 270.92 78.2828 271.607 78.1692C272.294 78.0273 272.844 77.9138 273.256 77.8286L275.235 86.8547C274.575 87.1102 273.655 87.3656 272.473 87.6211C271.291 87.9049 269.793 88.0468 267.979 88.0468C265.231 88.0468 262.538 87.4366 259.9 86.2161C257.289 84.9956 255.118 83.1364 253.386 80.6386C251.682 78.1409 250.83 74.9902 250.83 71.1868V6.13092Z" fill="white"/>
<path d="M313.759 88.5577C308.043 88.5577 303.027 87.1527 298.712 84.3427C294.425 81.5327 291.072 77.6016 288.653 72.5492C286.262 67.4969 285.067 61.593 285.067 54.8377C285.067 48.0255 286.262 42.0791 288.653 36.9984C291.072 31.9177 294.425 27.9723 298.712 25.1623C303.027 22.3523 308.043 20.9473 313.759 20.9473C319.475 20.9473 324.477 22.3523 328.765 25.1623C333.079 27.9723 336.432 31.9177 338.823 36.9984C341.242 42.0791 342.451 48.0255 342.451 54.8377C342.451 61.593 341.242 67.4969 338.823 72.5492C336.432 77.6016 333.079 81.5327 328.765 84.3427C324.477 87.1527 319.475 88.5577 313.759 88.5577ZM313.759 79.5317C318.101 79.5317 321.674 78.3821 324.477 76.083C327.281 73.7839 329.355 70.761 330.702 67.0144C332.049 63.2677 332.722 59.2088 332.722 54.8377C332.722 50.4666 332.049 46.3935 330.702 42.6184C329.355 38.8434 327.281 35.7921 324.477 33.4646C321.674 31.1371 318.101 29.9734 313.759 29.9734C309.417 29.9734 305.844 31.1371 303.041 33.4646C300.237 35.7921 298.163 38.8434 296.816 42.6184C295.469 46.3935 294.796 50.4666 294.796 54.8377C294.796 59.2088 295.469 63.2677 296.816 67.0144C298.163 70.761 300.237 73.7839 303.041 76.083C305.844 78.3821 309.417 79.5317 313.759 79.5317Z" fill="white"/>
<path d="M357.302 87.1953V21.7988H366.701V31.6764H367.361C368.515 28.4407 370.604 25.8152 373.627 23.7999C376.65 21.7846 380.058 20.777 383.851 20.777C384.565 20.777 385.458 20.7912 386.53 20.8196C387.602 20.848 388.413 20.8905 388.962 20.9473V31.1655C388.633 31.0804 387.877 30.9526 386.695 30.7823C385.541 30.5836 384.318 30.4843 383.026 30.4843C379.948 30.4843 377.2 31.1513 374.781 32.4854C372.39 33.791 370.494 35.6076 369.092 37.9351C367.718 40.2342 367.031 42.8597 367.031 45.8116V87.1953H357.302Z" fill="white"/>
<path d="M4 115.721H10.1012L24.4472 151.911H24.9419L39.288 115.721H45.3891V159.319H40.6071V126.195H40.1949L27.0031 159.319H22.386L9.19426 126.195H8.78201V159.319H4V115.721Z" fill="white"/>
<path d="M68.2531 160C65.2025 160 62.5711 159.305 60.3587 157.914C58.1601 156.509 56.463 154.55 55.2675 152.038C54.0857 149.512 53.4949 146.574 53.4949 143.225C53.4949 139.876 54.0857 136.924 55.2675 134.369C56.463 131.801 58.1257 129.8 60.2556 128.366C62.3993 126.919 64.9002 126.195 67.7584 126.195C69.4074 126.195 71.0358 126.479 72.6435 127.046C74.2513 127.614 75.7147 128.536 77.0339 129.814C78.3531 131.077 79.4043 132.751 80.1876 134.838C80.9708 136.924 81.3624 139.493 81.3624 142.544V144.673H56.9577V140.33H76.4155C76.4155 138.485 76.0583 136.839 75.3437 135.391C74.6429 133.944 73.6398 132.801 72.3343 131.964C71.0426 131.126 69.5173 130.708 67.7584 130.708C65.8209 130.708 64.1445 131.205 62.7291 132.198C61.3275 133.177 60.2488 134.454 59.493 136.03C58.7372 137.605 58.3593 139.294 58.3593 141.096V143.991C58.3593 146.461 58.7716 148.554 59.5961 150.271C60.4343 151.974 61.5954 153.273 63.0795 154.167C64.5636 155.047 66.2881 155.487 68.2531 155.487C69.5311 155.487 70.6854 155.302 71.716 154.933C72.7603 154.55 73.6604 153.983 74.4162 153.23C75.1719 152.464 75.756 151.513 76.1682 150.378L80.8678 151.74C80.3731 153.387 79.5417 154.834 78.3737 156.083C77.2057 157.318 75.7628 158.283 74.0452 158.978C72.3275 159.659 70.3968 160 68.2531 160Z" fill="white"/>
<path d="M93.6267 139.649V159.319H88.7622V126.621H93.4618V131.73H93.874C94.616 130.069 95.7428 128.735 97.2544 127.728C98.766 126.706 100.717 126.195 103.108 126.195C105.252 126.195 107.128 126.649 108.735 127.557C110.343 128.451 111.594 129.814 112.487 131.644C113.38 133.461 113.827 135.76 113.827 138.542V159.319H108.962V138.882C108.962 136.314 108.316 134.313 107.025 132.879C105.733 131.432 103.96 130.708 101.707 130.708C100.154 130.708 98.766 131.056 97.543 131.751C96.3337 132.446 95.3787 133.461 94.6779 134.795C93.9771 136.129 93.6267 137.747 93.6267 139.649Z" fill="white"/>
<path d="M136.484 126.621V130.878H120.077V126.621H136.484ZM124.859 118.787H129.724V149.952C129.724 151.371 129.923 152.436 130.321 153.145C130.734 153.841 131.256 154.309 131.888 154.55C132.534 154.777 133.214 154.891 133.929 154.891C134.464 154.891 134.904 154.863 135.248 154.806C135.591 154.735 135.866 154.678 136.072 154.635L137.062 159.148C136.732 159.276 136.271 159.404 135.681 159.532C135.09 159.674 134.341 159.745 133.434 159.745C132.06 159.745 130.713 159.439 129.394 158.829C128.088 158.219 127.003 157.289 126.137 156.04C125.285 154.792 124.859 153.216 124.859 151.315V118.787Z" fill="white"/>
<path d="M156.736 160C153.685 160 151.054 159.305 148.841 157.914C146.643 156.509 144.946 154.55 143.75 152.038C142.568 149.512 141.978 146.574 141.978 143.225C141.978 139.876 142.568 136.924 143.75 134.369C144.946 131.801 146.608 129.8 148.738 128.366C150.882 126.919 153.383 126.195 156.241 126.195C157.89 126.195 159.518 126.479 161.126 127.046C162.734 127.614 164.197 128.536 165.517 129.814C166.836 131.077 167.887 132.751 168.67 134.838C169.454 136.924 169.845 139.493 169.845 142.544V144.673H145.44V140.33H164.898C164.898 138.485 164.541 136.839 163.826 135.391C163.126 133.944 162.122 132.801 160.817 131.964C159.525 131.126 158 130.708 156.241 130.708C154.304 130.708 152.627 131.205 151.212 132.198C149.81 133.177 148.731 134.454 147.976 136.03C147.22 137.605 146.842 139.294 146.842 141.096V143.991C146.842 146.461 147.254 148.554 148.079 150.271C148.917 151.974 150.078 153.273 151.562 154.167C153.046 155.047 154.771 155.487 156.736 155.487C158.014 155.487 159.168 155.302 160.199 154.933C161.243 154.55 162.143 153.983 162.899 153.23C163.655 152.464 164.239 151.513 164.651 150.378L169.35 151.74C168.856 153.387 168.024 154.834 166.856 156.083C165.688 157.318 164.246 158.283 162.528 158.978C160.81 159.659 158.879 160 156.736 160Z" fill="white"/>
<path d="M190.519 160C187.469 160 184.837 159.305 182.625 157.914C180.426 156.509 178.729 154.55 177.533 152.038C176.352 149.512 175.761 146.574 175.761 143.225C175.761 139.876 176.352 136.924 177.533 134.369C178.729 131.801 180.392 129.8 182.522 128.366C184.665 126.919 187.166 126.195 190.024 126.195C191.673 126.195 193.302 126.479 194.909 127.046C196.517 127.614 197.981 128.536 199.3 129.814C200.619 131.077 201.67 132.751 202.454 134.838C203.237 136.924 203.628 139.493 203.628 142.544V144.673H179.224V140.33H198.682C198.682 138.485 198.324 136.839 197.61 135.391C196.909 133.944 195.906 132.801 194.6 131.964C193.309 131.126 191.783 130.708 190.024 130.708C188.087 130.708 186.41 131.205 184.995 132.198C183.593 133.177 182.515 134.454 181.759 136.03C181.003 137.605 180.625 139.294 180.625 141.096V143.991C180.625 146.461 181.038 148.554 181.862 150.271C182.7 151.974 183.861 153.273 185.345 154.167C186.83 155.047 188.554 155.487 190.519 155.487C191.797 155.487 192.951 155.302 193.982 154.933C195.026 154.55 195.926 153.983 196.682 153.23C197.438 152.464 198.022 151.513 198.434 150.378L203.134 151.74C202.639 153.387 201.808 154.834 200.64 156.083C199.472 157.318 198.029 158.283 196.311 158.978C194.593 159.659 192.663 160 190.519 160Z" fill="white"/>
<path d="M233.454 133.944L229.084 135.221C228.81 134.469 228.404 133.738 227.868 133.028C227.346 132.304 226.632 131.708 225.725 131.24C224.818 130.772 223.657 130.538 222.241 130.538C220.304 130.538 218.689 130.999 217.397 131.921C216.119 132.83 215.48 133.986 215.48 135.391C215.48 136.64 215.92 137.626 216.8 138.35C217.679 139.074 219.053 139.677 220.922 140.16L225.622 141.352C228.452 142.061 230.562 143.147 231.949 144.609C233.337 146.056 234.031 147.923 234.031 150.208C234.031 152.081 233.509 153.756 232.465 155.232C231.434 156.707 229.991 157.871 228.136 158.723C226.281 159.574 224.124 160 221.664 160C218.435 160 215.762 159.276 213.646 157.829C211.53 156.381 210.19 154.266 209.627 151.485L214.244 150.293C214.683 152.053 215.515 153.372 216.738 154.252C217.974 155.132 219.589 155.572 221.582 155.572C223.849 155.572 225.649 155.075 226.982 154.082C228.329 153.074 229.002 151.868 229.002 150.463C229.002 149.328 228.617 148.377 227.848 147.61C227.078 146.83 225.896 146.248 224.302 145.865L219.026 144.588C216.126 143.878 213.996 142.778 212.636 141.288C211.289 139.784 210.616 137.903 210.616 135.647C210.616 133.802 211.117 132.17 212.121 130.75C213.137 129.331 214.518 128.217 216.264 127.408C218.023 126.599 220.015 126.195 222.241 126.195C225.374 126.195 227.834 126.904 229.62 128.324C231.42 129.743 232.698 131.616 233.454 133.944Z" fill="white"/>
<path d="M292.307 129.345H287.195C286.893 127.827 286.364 126.493 285.608 125.343C284.866 124.194 283.959 123.229 282.887 122.448C281.829 121.653 280.654 121.057 279.363 120.66C278.071 120.263 276.724 120.064 275.323 120.064C272.767 120.064 270.451 120.731 268.376 122.065C266.315 123.399 264.673 125.365 263.45 127.962C262.241 130.559 261.636 133.745 261.636 137.52C261.636 141.295 262.241 144.481 263.45 147.078C264.673 149.675 266.315 151.641 268.376 152.975C270.451 154.309 272.767 154.976 275.323 154.976C276.724 154.976 278.071 154.777 279.363 154.38C280.654 153.983 281.829 153.394 282.887 152.613C283.959 151.818 284.866 150.846 285.608 149.697C286.364 148.533 286.893 147.199 287.195 145.695H292.307C291.922 147.923 291.221 149.917 290.204 151.676C289.188 153.436 287.923 154.933 286.412 156.168C284.9 157.389 283.203 158.318 281.321 158.957C279.452 159.596 277.452 159.915 275.323 159.915C271.722 159.915 268.521 159.007 265.717 157.19C262.914 155.373 260.709 152.79 259.101 149.441C257.493 146.092 256.689 142.118 256.689 137.52C256.689 132.922 257.493 128.948 259.101 125.599C260.709 122.249 262.914 119.666 265.717 117.85C268.521 116.033 271.722 115.125 275.323 115.125C277.452 115.125 279.452 115.444 281.321 116.083C283.203 116.722 284.9 117.658 286.412 118.893C287.923 120.114 289.188 121.604 290.204 123.363C291.221 125.109 291.922 127.103 292.307 129.345Z" fill="white"/>
<path d="M312.77 160C309.911 160 307.404 159.298 305.246 157.893C303.103 156.487 301.426 154.522 300.217 151.996C299.021 149.47 298.424 146.518 298.424 143.14C298.424 139.734 299.021 136.761 300.217 134.22C301.426 131.68 303.103 129.707 305.246 128.302C307.404 126.897 309.911 126.195 312.77 126.195C315.628 126.195 318.129 126.897 320.272 128.302C322.43 129.707 324.106 131.68 325.302 134.22C326.511 136.761 327.116 139.734 327.116 143.14C327.116 146.518 326.511 149.47 325.302 151.996C324.106 154.522 322.43 156.487 320.272 157.893C318.129 159.298 315.628 160 312.77 160ZM312.77 155.487C314.941 155.487 316.727 154.912 318.129 153.763C319.53 152.613 320.568 151.102 321.241 149.228C321.915 147.355 322.251 145.326 322.251 143.14C322.251 140.954 321.915 138.918 321.241 137.03C320.568 135.143 319.53 133.617 318.129 132.453C316.727 131.29 314.941 130.708 312.77 130.708C310.598 130.708 308.812 131.29 307.41 132.453C306.009 133.617 304.971 135.143 304.298 137.03C303.625 138.918 303.288 140.954 303.288 143.14C303.288 145.326 303.625 147.355 304.298 149.228C304.971 151.102 306.009 152.613 307.41 153.763C308.812 154.912 310.598 155.487 312.77 155.487Z" fill="white"/>
<path d="M339.406 139.649V159.319H334.541V126.621H339.241V131.73H339.653C340.395 130.069 341.522 128.735 343.033 127.728C344.545 126.706 346.496 126.195 348.887 126.195C351.031 126.195 352.907 126.649 354.514 127.557C356.122 128.451 357.373 129.814 358.266 131.644C359.159 133.461 359.606 135.76 359.606 138.542V159.319H354.741V138.882C354.741 136.314 354.095 134.313 352.804 132.879C351.512 131.432 349.739 130.708 347.486 130.708C345.933 130.708 344.545 131.056 343.322 131.751C342.113 132.446 341.158 133.461 340.457 134.795C339.756 136.129 339.406 137.747 339.406 139.649Z" fill="white"/>
<path d="M373.359 139.649V159.319H368.494V126.621H373.194V131.73H373.606C374.348 130.069 375.475 128.735 376.987 127.728C378.498 126.706 380.45 126.195 382.841 126.195C384.984 126.195 386.86 126.649 388.468 127.557C390.075 128.451 391.326 129.814 392.219 131.644C393.112 133.461 393.559 135.76 393.559 138.542V159.319H388.694V138.882C388.694 136.314 388.049 134.313 386.757 132.879C385.465 131.432 383.693 130.708 381.439 130.708C379.886 130.708 378.498 131.056 377.275 131.751C376.066 132.446 375.111 133.461 374.41 134.795C373.709 136.129 373.359 137.747 373.359 139.649Z" fill="white"/>
<path d="M415.722 160C412.671 160 410.04 159.305 407.828 157.914C405.629 156.509 403.932 154.55 402.736 152.038C401.555 149.512 400.964 146.574 400.964 143.225C400.964 139.876 401.555 136.924 402.736 134.369C403.932 131.801 405.595 129.8 407.725 128.366C409.868 126.919 412.369 126.195 415.227 126.195C416.876 126.195 418.505 126.479 420.112 127.046C421.72 127.614 423.184 128.536 424.503 129.814C425.822 131.077 426.873 132.751 427.656 134.838C428.44 136.924 428.831 139.493 428.831 142.544V144.673H404.427V140.33H423.884C423.884 138.485 423.527 136.839 422.813 135.391C422.112 133.944 421.109 132.801 419.803 131.964C418.512 131.126 416.986 130.708 415.227 130.708C413.29 130.708 411.613 131.205 410.198 132.198C408.796 133.177 407.718 134.454 406.962 136.03C406.206 137.605 405.828 139.294 405.828 141.096V143.991C405.828 146.461 406.24 148.554 407.065 150.271C407.903 151.974 409.064 153.273 410.548 154.167C412.032 155.047 413.757 155.487 415.722 155.487C417 155.487 418.154 155.302 419.185 154.933C420.229 154.55 421.129 153.983 421.885 153.23C422.641 152.464 423.225 151.513 423.637 150.378L428.337 151.74C427.842 153.387 427.011 154.834 425.843 156.083C424.675 157.318 423.232 158.283 421.514 158.978C419.796 159.659 417.866 160 415.722 160Z" fill="white"/>
<path d="M449.093 160C446.125 160 443.569 159.276 441.425 157.829C439.282 156.381 437.633 154.387 436.478 151.847C435.324 149.306 434.747 146.404 434.747 143.14C434.747 139.819 435.338 136.888 436.52 134.348C437.715 131.794 439.378 129.8 441.508 128.366C443.651 126.919 446.152 126.195 449.011 126.195C451.237 126.195 453.243 126.621 455.029 127.472C456.816 128.324 458.279 129.516 459.42 131.048C460.56 132.581 461.268 134.369 461.543 136.413H456.678C456.307 134.923 455.483 133.603 454.205 132.453C452.941 131.29 451.237 130.708 449.093 130.708C447.197 130.708 445.534 131.219 444.105 132.241C442.69 133.248 441.583 134.674 440.786 136.519C440.003 138.35 439.611 140.5 439.611 142.97C439.611 145.496 439.996 147.696 440.766 149.569C441.549 151.442 442.648 152.897 444.064 153.933C445.493 154.969 447.169 155.487 449.093 155.487C450.357 155.487 451.505 155.26 452.535 154.806C453.566 154.352 454.438 153.699 455.153 152.847C455.868 151.996 456.376 150.974 456.678 149.782H461.543C461.268 151.712 460.588 153.45 459.502 154.997C458.43 156.53 457.008 157.751 455.235 158.659C453.477 159.553 451.429 160 449.093 160Z" fill="white"/>
<path d="M482.423 126.621V130.878H466.016V126.621H482.423ZM470.798 118.787H475.662V149.952C475.662 151.371 475.861 152.436 476.26 153.145C476.672 153.841 477.194 154.309 477.826 154.55C478.472 154.777 479.152 154.891 479.867 154.891C480.403 154.891 480.843 154.863 481.186 154.806C481.53 154.735 481.804 154.678 482.011 154.635L483 159.148C482.67 159.276 482.21 159.404 481.619 159.532C481.028 159.674 480.279 159.745 479.372 159.745C477.998 159.745 476.651 159.439 475.332 158.829C474.027 158.219 472.941 157.289 472.076 156.04C471.224 154.792 470.798 153.216 470.798 151.315V118.787Z" fill="white"/>
</g>
<defs>
<filter id="filter0_d_1_203" x="0" y="0" width="487" height="174" filterUnits="userSpaceOnUse" color-interpolation-filters="sRGB">
<feFlood flood-opacity="0" result="BackgroundImageFix"/>
<feColorMatrix in="SourceAlpha" type="matrix" values="0 0 0 0 0 0 0 0 0 0 0 0 0 0 0 0 0 0 127 0" result="hardAlpha"/>
<feOffset dy="10"/>
<feGaussianBlur stdDeviation="2"/>
<feComposite in2="hardAlpha" operator="out"/>
<feColorMatrix type="matrix" values="0 0 0 0 0 0 0 0 0 0 0 0 0 0 0 0 0 0 0.25 0"/>
<feBlend mode="normal" in2="BackgroundImageFix" result="effect1_dropShadow_1_203"/>
<feBlend mode="normal" in="SourceGraphic" in2="effect1_dropShadow_1_203" result="shape"/>
</filter>
</defs>
</svg>
