<svg width="37" height="42" viewBox="0 0 37 42" fill="none" xmlns="http://www.w3.org/2000/svg">
<path d="M20.0848 3.50179C21.2099 3.49689 22.3349 3.50972 23.4596 3.54029L23.7586 3.55254C24.104 3.56654 24.4447 3.58404 24.8563 3.60504C26.4966 3.69254 27.6159 3.98654 28.5979 4.41879C29.6154 4.86329 30.4726 5.46529 31.3298 6.43829C32.1135 7.3126 32.7201 8.37019 33.1073 9.53754C33.4881 10.6523 33.7471 11.9245 33.8242 13.7865C33.8427 14.252 33.8581 14.6405 33.8704 15.0325L33.8797 15.372C33.9071 16.6481 33.9189 17.9246 33.9151 19.201L33.9167 20.5065V22.799C33.9205 24.0761 33.9087 25.3531 33.8812 26.6298L33.872 26.9693C33.8596 27.3613 33.8442 27.748 33.8257 28.2153C33.7486 30.0773 33.4866 31.3478 33.1073 32.4625C32.7213 33.6311 32.1146 34.6896 31.3298 35.5635C30.5589 36.4531 29.6267 37.1416 28.5979 37.5813C27.6159 38.0135 26.4966 38.3075 24.8563 38.395C24.4447 38.416 24.104 38.4335 23.7586 38.4475L23.4596 38.458C22.3349 38.4891 21.2099 38.5026 20.0848 38.4983L18.9348 38.5H16.9167C15.7917 38.5043 14.6667 38.4909 13.542 38.4598L13.2429 38.4493C12.877 38.4342 12.5111 38.4167 12.1453 38.3968C10.5049 38.3093 9.38568 38.0118 8.4021 37.5813C7.37332 37.1426 6.44146 36.454 5.67181 35.5635C4.88717 34.689 4.28003 33.6308 3.89272 32.4625C3.51193 31.3478 3.25293 30.0773 3.17585 28.2153C3.15868 27.8 3.14326 27.3847 3.1296 26.9693L3.12189 26.6298C3.09347 25.3531 3.08062 24.0761 3.08335 22.799V19.201C3.07905 17.9246 3.09035 16.6481 3.11726 15.372L3.12806 15.0325C3.14039 14.6405 3.15581 14.252 3.17431 13.7865C3.25139 11.9228 3.51039 10.654 3.89118 9.53754C4.27871 8.36962 4.88704 7.31232 5.67335 6.44004C6.44248 5.54885 7.37375 4.85904 8.4021 4.41879C9.38568 3.98654 10.5034 3.69254 12.1453 3.60504L13.2429 3.55254L13.542 3.54379C14.6662 3.51154 15.7907 3.49695 16.9152 3.50004L20.0848 3.50179ZM18.5 12.2518C17.4787 12.2354 16.4646 12.4496 15.5169 12.8819C14.5691 13.3142 13.7064 13.9561 12.9791 14.7701C12.2517 15.5842 11.6741 16.5542 11.2799 17.6239C10.8857 18.6935 10.6827 19.8414 10.6827 21.0009C10.6827 22.1604 10.8857 23.3083 11.2799 24.378C11.6741 25.4476 12.2517 26.4176 12.9791 27.2317C13.7064 28.0457 14.5691 28.6876 15.5169 29.1199C16.4646 29.5522 17.4787 29.7664 18.5 29.75C20.5444 29.75 22.505 28.8282 23.9506 27.1872C25.3962 25.5463 26.2083 23.3207 26.2083 21C26.2083 18.6794 25.3962 16.4538 23.9506 14.8129C22.505 13.1719 20.5444 12.2518 18.5 12.2518ZM18.5 15.7518C19.1144 15.7389 19.7248 15.8652 20.2957 16.1231C20.8666 16.3811 21.3865 16.7656 21.825 17.2542C22.2636 17.7428 22.6119 18.3257 22.8497 18.9689C23.0876 19.612 23.2101 20.3025 23.2102 21C23.2103 21.6975 23.088 22.3881 22.8503 23.0313C22.6127 23.6745 22.2645 24.2576 21.8261 24.7463C21.3878 25.2351 20.868 25.6198 20.2972 25.878C19.7263 26.1362 19.1159 26.2627 18.5016 26.25C17.2749 26.25 16.0985 25.6969 15.2312 24.7123C14.3638 23.7278 13.8766 22.3924 13.8766 21C13.8766 19.6077 14.3638 18.2723 15.2312 17.2877C16.0985 16.3032 17.2749 15.75 18.5016 15.75L18.5 15.7518ZM26.5938 9.62679C26.0964 9.64938 25.6261 9.88955 25.2812 10.297C24.9363 10.7044 24.7437 11.2475 24.7437 11.8125C24.7437 12.3776 24.9363 12.9207 25.2812 13.3281C25.6261 13.7355 26.0964 13.9757 26.5938 13.9983C27.1049 13.9983 27.595 13.7678 27.9564 13.3576C28.3178 12.9473 28.5208 12.3909 28.5208 11.8108C28.5208 11.2306 28.3178 10.6742 27.9564 10.264C27.595 9.85375 27.1049 9.62329 26.5938 9.62329V9.62679Z" fill="white"/>
</svg>
