<svg width="34" height="26" viewBox="0 0 34 26" fill="none" xmlns="http://www.w3.org/2000/svg">
<path d="M29.75 13C29.3743 13 29.0139 13.1142 28.7483 13.3173C28.4826 13.5205 28.3333 13.796 28.3333 14.0833V20.5833C28.3333 20.8707 28.1841 21.1462 27.9184 21.3494C27.6527 21.5525 27.2924 21.6667 26.9167 21.6667H7.08333C6.7076 21.6667 6.34727 21.5525 6.08159 21.3494C5.81592 21.1462 5.66666 20.8707 5.66666 20.5833V5.41668C5.66666 5.12936 5.81592 4.85381 6.08159 4.65065C6.34727 4.44749 6.7076 4.33335 7.08333 4.33335H15.5833C15.9591 4.33335 16.3194 4.21921 16.5851 4.01605C16.8507 3.81288 17 3.53733 17 3.25002C17 2.9627 16.8507 2.68715 16.5851 2.48398C16.3194 2.28082 15.9591 2.16668 15.5833 2.16668H7.08333C5.95616 2.16668 4.87515 2.50909 4.07812 3.11858C3.28109 3.72808 2.83333 4.55473 2.83333 5.41668V20.5833C2.83333 21.4453 3.28109 22.272 4.07812 22.8814C4.87515 23.4909 5.95616 23.8333 7.08333 23.8333H26.9167C28.0438 23.8333 29.1248 23.4909 29.9219 22.8814C30.7189 22.272 31.1667 21.4453 31.1667 20.5833V14.0833C31.1667 13.796 31.0174 13.5205 30.7517 13.3173C30.4861 13.1142 30.1257 13 29.75 13ZM8.49999 13.8233V18.4167C8.49999 18.704 8.64925 18.9795 8.91493 19.1827C9.1806 19.3859 9.54094 19.5 9.91666 19.5H15.9233C16.1098 19.5008 16.2946 19.4735 16.4672 19.4196C16.6398 19.3657 16.7968 19.2863 16.9292 19.1858L26.7325 11.6783L30.7558 8.66668C30.8886 8.56597 30.994 8.44615 31.0659 8.31414C31.1378 8.18213 31.1749 8.04053 31.1749 7.89751C31.1749 7.7545 31.1378 7.6129 31.0659 7.48089C30.994 7.34888 30.8886 7.22906 30.7558 7.12835L24.7492 2.48085C24.6175 2.37931 24.4608 2.29872 24.2881 2.24372C24.1155 2.18872 23.9303 2.1604 23.7433 2.1604C23.5563 2.1604 23.3711 2.18872 23.1985 2.24372C23.0259 2.29872 22.8692 2.37931 22.7375 2.48085L18.7425 5.54668L8.91083 13.0542C8.77953 13.1554 8.67565 13.2755 8.60515 13.4074C8.53465 13.5394 8.49892 13.6808 8.49999 13.8233ZM23.7433 4.77751L27.7525 7.84335L25.7408 9.38168L21.7317 6.31585L23.7433 4.77751ZM11.3333 14.2675L19.7342 7.84335L23.7433 10.9092L15.3425 17.3333H11.3333V14.2675Z" fill="white"/>
</svg>
