<svg width="34" height="26" viewBox="0 0 34 26" fill="none" xmlns="http://www.w3.org/2000/svg">
<path d="M29.7499 13C29.3742 13 29.0139 13.1142 28.7482 13.3173C28.4825 13.5205 28.3332 13.796 28.3332 14.0833V20.5833C28.3332 20.8707 28.184 21.1462 27.9183 21.3494C27.6526 21.5525 27.2923 21.6667 26.9166 21.6667H7.08325C6.70753 21.6667 6.34719 21.5525 6.08152 21.3494C5.81584 21.1462 5.66658 20.8707 5.66658 20.5833V5.41668C5.66658 5.12936 5.81584 4.85381 6.08152 4.65065C6.34719 4.44749 6.70753 4.33335 7.08325 4.33335H15.5833C15.959 4.33335 16.3193 4.21921 16.585 4.01605C16.8507 3.81288 16.9999 3.53733 16.9999 3.25002C16.9999 2.9627 16.8507 2.68715 16.585 2.48398C16.3193 2.28082 15.959 2.16668 15.5833 2.16668H7.08325C5.95608 2.16668 4.87508 2.50909 4.07805 3.11858C3.28102 3.72808 2.83325 4.55473 2.83325 5.41668V20.5833C2.83325 21.4453 3.28102 22.272 4.07805 22.8814C4.87508 23.4909 5.95608 23.8333 7.08325 23.8333H26.9166C28.0438 23.8333 29.1248 23.4909 29.9218 22.8814C30.7188 22.272 31.1666 21.4453 31.1666 20.5833V14.0833C31.1666 13.796 31.0173 13.5205 30.7517 13.3173C30.486 13.1142 30.1256 13 29.7499 13ZM8.49992 13.8233V18.4167C8.49992 18.704 8.64917 18.9795 8.91485 19.1827C9.18053 19.3859 9.54086 19.5 9.91658 19.5H15.9233C16.1097 19.5008 16.2945 19.4735 16.4671 19.4196C16.6397 19.3657 16.7967 19.2863 16.9291 19.1858L26.7324 11.6783L30.7557 8.66668C30.8885 8.56597 30.9939 8.44615 31.0658 8.31414C31.1378 8.18213 31.1748 8.04053 31.1748 7.89751C31.1748 7.7545 31.1378 7.6129 31.0658 7.48089C30.9939 7.34888 30.8885 7.22906 30.7557 7.12835L24.7491 2.48085C24.6174 2.37931 24.4607 2.29872 24.2881 2.24372C24.1154 2.18872 23.9303 2.1604 23.7432 2.1604C23.5562 2.1604 23.3711 2.18872 23.1984 2.24372C23.0258 2.29872 22.8691 2.37931 22.7374 2.48085L18.7424 5.54668L8.91075 13.0542C8.77945 13.1554 8.67558 13.2755 8.60508 13.4074C8.53458 13.5394 8.49884 13.6808 8.49992 13.8233ZM23.7432 4.77751L27.7524 7.84335L25.7407 9.38168L21.7316 6.31585L23.7432 4.77751ZM11.3333 14.2675L19.7341 7.84335L23.7432 10.9092L15.3424 17.3333H11.3333V14.2675Z" fill="white"/>
</svg>
