<svg width="44" height="41" viewBox="0 0 44 41" fill="none" xmlns="http://www.w3.org/2000/svg">
<g clip-path="url(#clip0_101_10)">
<path d="M22 41C22 41 6.60001 22.2835 6.60001 14.35C6.60001 12.4655 6.99834 10.5995 7.77226 8.85849C8.54618 7.11747 9.68054 5.53554 11.1106 4.20302C12.5406 2.8705 14.2383 1.81348 16.1067 1.09233C17.9751 0.371174 19.9776 0 22 0C24.0224 0 26.0249 0.371174 27.8933 1.09233C29.7617 1.81348 31.4594 2.8705 32.8895 4.20302C34.3195 5.53554 35.4538 7.11747 36.2278 8.85849C37.0017 10.5995 37.4 12.4655 37.4 14.35C37.4 22.2835 22 41 22 41ZM22 18.45C23.167 18.45 24.2861 18.018 25.1113 17.2491C25.9364 16.4802 26.4 15.4374 26.4 14.35C26.4 13.2626 25.9364 12.2198 25.1113 11.4509C24.2861 10.682 23.167 10.25 22 10.25C20.8331 10.25 19.7139 10.682 18.8887 11.4509C18.0636 12.2198 17.6 13.2626 17.6 14.35C17.6 15.4374 18.0636 16.4802 18.8887 17.2491C19.7139 18.018 20.8331 18.45 22 18.45Z" fill="#6408D9"/>
</g>
<defs>
<clipPath id="clip0_101_10">
<rect width="44" height="41" fill="white"/>
</clipPath>
</defs>
</svg>
