<svg width="30" height="28" viewBox="0 0 30 28" fill="none" xmlns="http://www.w3.org/2000/svg">
<g clip-path="url(#clip0_108_55)">
<path d="M15 28C15 28 4.5 15.218 4.5 9.8C4.5 8.51305 4.77159 7.23869 5.29927 6.0497C5.82694 4.86071 6.60036 3.78037 7.57538 2.87035C8.55039 1.96034 9.70791 1.23848 10.9818 0.745981C12.2557 0.253484 13.6211 0 15 0C16.3789 0 17.7443 0.253484 19.0182 0.745981C20.2921 1.23848 21.4496 1.96034 22.4246 2.87035C23.3996 3.78037 24.1731 4.86071 24.7007 6.0497C25.2284 7.23869 25.5 8.51305 25.5 9.8C25.5 15.218 15 28 15 28ZM15 12.6C15.7956 12.6 16.5587 12.305 17.1213 11.7799C17.6839 11.2548 18 10.5426 18 9.8C18 9.05739 17.6839 8.3452 17.1213 7.8201C16.5587 7.295 15.7956 7 15 7C14.2044 7 13.4413 7.295 12.8787 7.8201C12.3161 8.3452 12 9.05739 12 9.8C12 10.5426 12.3161 11.2548 12.8787 11.7799C13.4413 12.305 14.2044 12.6 15 12.6Z" fill="#6408D9"/>
</g>
<defs>
<clipPath id="clip0_108_55">
<rect width="30" height="28" fill="white"/>
</clipPath>
</defs>
</svg>
